<svg xmlns="http://www.w3.org/2000/svg" viewBox="0 0 1920 1792"><path d="M640 1408q0-53-37.5-90.5T512 1280t-90.5 37.5T384 1408t37.5 90.5T512 1536t90.5-37.5T640 1408zM256 896h384V640H482q-14 2-22 9L265 844q-7 12-9 22v30zm1280 512q0-53-37.5-90.5T1408 1280t-90.5 37.5-37.5 90.5 37.5 90.5 90.5 37.5 90.5-37.5 37.5-90.5zm128-672V544q0-14-9-23t-23-9h-224V288q0-14-9-23t-23-9h-192q-14 0-23 9t-9 23v224H928q-14 0-23 9t-9 23v192q0 14 9 23t23 9h224v224q0 14 9 23t23 9h192q14 0 23-9t9-23V768h224q14 0 23-9t9-23zm256-544v1152q0 26-19 45t-45 19h-192q0 106-75 181t-181 75-181-75-75-181H768q0 106-75 181t-181 75-181-75-75-181H128q-26 0-45-19t-19-45 19-45 45-19V864q0-26 13-58t32-51l198-198q19-19 51-32t58-13h160V192q0-26 19-45t45-19h1152q26 0 45 19t19 45z" fill="#f00"/></svg>