<svg xmlns="http://www.w3.org/2000/svg" viewBox="0 0 1536 1792"><path d="M1024 896q0 106-75 181t-181 75-181-75-75-181 75-181 181-75 181 75 75 181zm128 0q0-159-112.5-271.5T768 512 496.5 624.5 384 896t112.5 271.5T768 1280t271.5-112.5T1152 896zm128 0q0 212-150 362t-362 150-362-150-150-362 150-362 362-150 362 150 150 362zm128 0q0-130-51-248.5t-136.5-204-204-136.5T768 256t-248.5 51-204 136.5-136.5 204T128 896t51 248.5 136.5 204 204 136.5 248.5 51 248.5-51 204-136.5 136.5-204 51-248.5zm128 0q0 209-103 385.5T1153.5 1561 768 1664t-385.5-103T103 1281.5 0 896t103-385.5T382.5 231 768 128t385.5 103T1433 510.5 1536 896z" fill="#f00"/></svg>