<svg xmlns="http://www.w3.org/2000/svg" viewBox="0 0 1536 1792"><path d="M1150 1074v109q0 50-36.5 89t-94 60.5-118 32.5-117.5 11q-205 0-342.5-139T304 891q0-203 136-339t339-136q34 0 75.5 4.5t93 18 92.5 34 69 56.5 28 81v109q0 16-16 16h-118q-16 0-16-16v-70q0-43-65.5-67.5T784 557q-140 0-228.5 91.5T467 886q0 151 91.5 249.5T792 1234q68 0 138-24t70-66v-70q0-7 4.5-11.5t10.5-4.5h119q6 0 11 4.5t5 11.5zM768 256q-130 0-248.5 51t-204 136.5-136.5 204T128 896t51 248.5 136.5 204 204 136.5 248.5 51 248.5-51 204-136.5 136.5-204 51-248.5-51-248.5-136.5-204-204-136.5T768 256zm768 640q0 209-103 385.5T1153.5 1561 768 1664t-385.5-103T103 1281.5 0 896t103-385.5T382.5 231 768 128t385.5 103T1433 510.5 1536 896z" fill="#f00"/></svg>