<svg xmlns="http://www.w3.org/2000/svg" viewBox="0 0 1536 1792"><path d="M1024 1500q-42-241-140-498h-2l-2 1q-16 6-43 16.5t-101 49-137 82T468 1265t-103 148l-15-11q184 150 418 150 132 0 256-52zM839 893q-21-49-53-111-311 93-673 93-1 7-1 21 0 124 44 236.5T280 1334q50-89 123.5-166.5T546 1043t130.5-81 99.5-48l37-13q4-1 13-3.5t13-4.5zM732 681Q612 468 488 303q-138 65-234 186T126 761q302 0 606-80zm684 319q-210-60-409-29 87 239 128 469 111-75 185-189.5t96-250.5zM611 259q-1 0-2 1 1-1 2-1zm590 145q-185-164-433-164-76 0-155 19 131 170 246 382 69-26 130-60.5t96.5-61.5 65.5-57 37.5-40.5zm223 485q-3-232-149-410l-1 1q-9 12-19 24.5t-43.5 44.5-71 60.5-100 65T909 739q25 53 44 95 2 6 6.5 17.5T967 868q36-5 74.5-7t73.5-2 69 1.5 64 4 56.5 5.5 48 6.5 36.5 6 25 4.5zm112 7q0 209-103 385.5T1153.5 1561 768 1664t-385.5-103T103 1281.5 0 896t103-385.5T382.5 231 768 128t385.5 103T1433 510.5 1536 896z" fill="#f00"/></svg>