<svg xmlns="http://www.w3.org/2000/svg" viewBox="0 0 1280 1792"><path d="M981 1339q0-25-7-49t-14.5-42-27-41.5-29.5-35-38.5-34.5-36.5-29-41.5-30-36.5-26q-16-2-49-2-53 0-104.5 7t-107 25-97 46-68.5 74.5-27 105.5q0 56 23.5 102t61 75.5 87 50 100 29T670 1573q58 0 111.5-13t99-39 73-73 27.5-109zM864 481q0-59-17-125.5t-48-129T715 123 598 82q-42 0-82.5 19.5T449 154q-46 59-46 160 0 46 10 97.5t31.5 103 52 92.5 75 67 96.5 26q37 0 77.5-16.5T811 640q53-56 53-159zM752 0h417l-137 88H900q75 63 113 133t38 160q0 72-24.5 129.5t-59.5 93-69.5 65-59 61.5-24.5 66q0 36 32 70.5t77 68 90.5 73.5 77.5 104 32 142q0 91-49 173-71 122-209.5 179.5T566 1664q-132 0-246.5-41.5T147 1485q-36-59-36-131 0-81 44.5-150T274 1089q131-82 404-100-32-41-47.5-73.5T615 842q0-40 21-85-46 4-68 4-148 0-249.5-96.5T217 420q0-82 36-159t99-131q76-66 182-98T752 0z" fill="#f00"/></svg>