<svg xmlns="http://www.w3.org/2000/svg" viewBox="0 0 1536 1792"><path d="M829 1218q0 76-58.5 112.5T631 1367q-41 0-80.5-9.5T475 1329t-58-53-22-78q0-46 25-80t65.5-51.5 82-25 84.5-7.5q20 0 31 2 2 1 23 16.5t26 19 23 18 24.5 22 19 22.5 17 26 9 26.5 4.5 31.5zm-74-545q0 60-33 99.5T630 812q-53 0-93-42.5T479.5 673 462 567q0-61 32-104t92-43q53 0 93.5 45t58 101T755 673zm106-257l88-64H684q-85 0-161 32t-127.5 98T344 635q0 93 64.5 154.5T567 851q22 0 43-3-13 29-13 54 0 44 40 94-175 12-257 63-47 29-75.5 73t-28.5 95q0 43 18.5 77.5T343 1361t69 37 77.5 21 76.5 6q60 0 120.5-15.5t113.5-46 86-82.5 33-117q0-49-20-89.5t-49-66.5-58-47.5-49-44-20-44.5 15.5-42.5T776 790t44-42 37.5-59.5T873 606q0-60-22.5-99.5T778 416h83zm291 448h128v-64h-128V672h-64v128H960v64h128v160h64V864zm384-448v960q0 119-84.5 203.5T1248 1664H288q-119 0-203.5-84.5T0 1376V416q0-119 84.5-203.5T288 128h960q119 0 203.5 84.5T1536 416z" fill="#f00"/></svg>