<svg xmlns="http://www.w3.org/2000/svg" viewBox="0 0 1920 1792"><path d="M832 1088V960q0-14-9-23t-23-9H608V736q0-14-9-23t-23-9H448q-14 0-23 9t-9 23v192H224q-14 0-23 9t-9 23v128q0 14 9 23t23 9h192v192q0 14 9 23t23 9h128q14 0 23-9t9-23v-192h192q14 0 23-9t9-23zm576 64q0-53-37.5-90.5T1280 1024t-90.5 37.5-37.5 90.5 37.5 90.5 90.5 37.5 90.5-37.5 37.5-90.5zm256-256q0-53-37.5-90.5T1536 768t-90.5 37.5T1408 896t37.5 90.5 90.5 37.5 90.5-37.5T1664 896zm256 128q0 212-150 362t-362 150q-192 0-338-128H850q-146 128-338 128-212 0-362-150T0 1024t150-362 362-150h896q212 0 362 150t150 362z" fill="#f00"/></svg>