<svg xmlns="http://www.w3.org/2000/svg" viewBox="0 0 1536 1792"><path d="M1536 896q0 156-61 298t-164 245-245 164-298 61q-172 0-327-72.5T177 1387q-7-10-6.5-22.5t8.5-20.5l137-138q10-9 25-9 16 2 23 12 73 95 179 147t225 52q104 0 198.5-40.5T1130 1258t109.5-163.5T1280 896t-40.5-198.5T1130 534 966.5 424.5 768 384q-98 0-188 35.5T420 521l137 138q31 30 14 69-17 40-59 40H64q-26 0-45-19T0 704V256q0-42 40-59 39-17 69 14l130 129q107-101 244.5-156.5T768 128q156 0 298 61t245 164 164 245 61 298zM896 608v448q0 14-9 23t-23 9H544q-14 0-23-9t-9-23v-64q0-14 9-23t23-9h224V608q0-14 9-23t23-9h64q14 0 23 9t9 23z" fill="#f00"/></svg>