<svg xmlns="http://www.w3.org/2000/svg" viewBox="0 0 1408 1792"><path d="M1404 1385q0 117-79 196t-196 79q-135 0-235-100L117 784Q4 669 4 513q0-159 110-270t269-111q158 0 273 113l605 606q10 10 10 22 0 16-30.5 46.5T1194 950q-13 0-23-10L565 333q-79-77-181-77-106 0-179 75t-73 181q0 105 76 181l776 777q63 63 145 63 64 0 106-42t42-106q0-82-63-145L633 659q-26-24-60-24-29 0-48 19t-19 48q0 32 25 59l410 410q10 10 10 22 0 16-31 47t-47 31q-12 0-22-10L441 851q-63-61-63-149 0-82 57-139t139-57q88 0 149 63l581 581q100 98 100 235z" fill="#f00"/></svg>