<svg xmlns="http://www.w3.org/2000/svg" viewBox="0 0 1408 1792"><path d="M384 1344q0 80-56 136t-136 56-136-56-56-136 56-136 136-56 136 56 56 136zm512 123q2 28-17 48-18 21-47 21H697q-25 0-43-16.5t-20-41.5q-22-229-184.5-391.5T58 902q-25-2-41.5-20T0 839V704q0-29 21-47 17-17 43-17h5q160 13 306 80.5T634 902q114 113 181.5 259t80.5 306zm512 2q2 27-18 47-18 20-46 20h-143q-26 0-44.5-17.5T1137 1476q-12-215-101-408.5t-231.5-336-336-231.5T60 398q-25-1-42.5-19.5T0 335V192q0-28 20-46 18-18 44-18h3q262 13 501.5 120T994 542q187 186 294 425.5t120 501.5z" fill="#f00"/></svg>