<svg xmlns="http://www.w3.org/2000/svg" viewBox="0 0 1536 1792"><path d="M866 839l90-27v-62q0-79-58-135t-138-56-138 55.5T564 749v283q0 20-14 33.5t-33 13.5-32.5-13.5T471 1032V912H320v122q0 82 57.5 139t139.5 57q81 0 138.5-56.5T713 1037V757q0-19 13.5-33t33.5-14q19 0 32.5 14t13.5 33v54zm333 195V912h-150v126q0 20-13.5 33.5T1002 1085q-19 0-32.5-14t-13.5-33V915l-90 26-60-28v123q0 80 58 137t139 57 138.5-57 57.5-139zm337-138q0 209-103 385.5T1153.5 1561 768 1664t-385.5-103T103 1281.5 0 896t103-385.5T382.5 231 768 128t385.5 103T1433 510.5 1536 896z" fill="#f00"/></svg>