<svg xmlns="http://www.w3.org/2000/svg" viewBox="0 0 1536 1792"><path d="M352 1408v128H0v-128h352zm352-128q26 0 45 19t19 45v256q0 26-19 45t-45 19H448q-26 0-45-19t-19-45v-256q0-26 19-45t45-19h256zm160-384v128H0V896h864zM224 384v128H0V384h224zm1312 1024v128H800v-128h736zM576 256q26 0 45 19t19 45v256q0 26-19 45t-45 19H320q-26 0-45-19t-19-45V320q0-26 19-45t45-19h256zm640 512q26 0 45 19t19 45v256q0 26-19 45t-45 19H960q-26 0-45-19t-19-45V832q0-26 19-45t45-19h256zm320 128v128h-224V896h224zm0-512v128H672V384h864z" fill="#f00"/></svg>