<svg xmlns="http://www.w3.org/2000/svg" viewBox="0 0 1536 1792"><path d="M1127 1210q0-32-30-51-193-115-447-115-133 0-287 34-42 9-42 52 0 20 13.5 34.5T370 1179q5 0 37-8 132-27 243-27 226 0 397 103 19 11 33 11 19 0 33-13.5t14-34.5zm96-215q0-40-35-61-237-141-548-141-153 0-303 42-48 13-48 64 0 25 17.5 42.5T349 959q7 0 37-8 122-33 251-33 279 0 488 124 24 13 38 13 25 0 42.5-17.5T1223 995zm108-248q0-47-40-70-126-73-293-110.5T655 529q-204 0-364 47-23 7-38.5 25.5T237 650q0 31 20.5 52t51.5 21q11 0 40-8 133-37 307-37 159 0 309.5 34t253.5 95q21 12 40 12 29 0 50.5-20.5T1331 747zm205 149q0 209-103 385.5T1153.5 1561 768 1664t-385.5-103T103 1281.5 0 896t103-385.5T382.5 231 768 128t385.5 103T1433 510.5 1536 896z" fill="#f00"/></svg>