<svg xmlns="http://www.w3.org/2000/svg" viewBox="0 0 1536 1792"><path d="M1134 1075q-37 121-138 195t-228 74-228-74-138-195q-8-25 4-48.5t38-31.5q25-8 48.5 4t31.5 38q25 80 92.5 129.5T768 1216t151.5-49.5T1012 1037q8-26 32-38t49-4 37 31.5 4 48.5zM640 640q0 53-37.5 90.5T512 768t-90.5-37.5T384 640t37.5-90.5T512 512t90.5 37.5T640 640zm512 0q0 53-37.5 90.5T1024 768t-90.5-37.5T896 640t37.5-90.5T1024 512t90.5 37.5T1152 640zm256 256q0-130-51-248.5t-136.5-204-204-136.5T768 256t-248.5 51-204 136.5-136.5 204T128 896t51 248.5 136.5 204 204 136.5 248.5 51 248.5-51 204-136.5 136.5-204 51-248.5zm128 0q0 209-103 385.5T1153.5 1561 768 1664t-385.5-103T103 1281.5 0 896t103-385.5T382.5 231 768 128t385.5 103T1433 510.5 1536 896z" fill="#f00"/></svg>