<svg xmlns="http://www.w3.org/2000/svg" viewBox="0 0 1664 1792"><path d="M1024 800v64q0 13-9.5 22.5T992 896H416q-13 0-22.5-9.5T384 864v-64q0-13 9.5-22.5T416 768h576q13 0 22.5 9.5t9.5 22.5zm128 32q0-185-131.5-316.5T704 384 387.5 515.5 256 832t131.5 316.5T704 1280t316.5-131.5T1152 832zm512 832q0 53-37.5 90.5T1536 1792q-54 0-90-38l-343-342q-179 124-399 124-143 0-273.5-55.5t-225-150-150-225T0 832t55.5-273.5 150-225 225-150T704 128t273.5 55.5 225 150 150 225T1408 832q0 220-124 399l343 343q37 37 37 90z" fill="#f00"/></svg>