<svg xmlns="http://www.w3.org/2000/svg" viewBox="0 0 1536 1792"><path d="M1242 647q0-80-57-136.5T1048 454t-136.5 57T855 647q0 80 56.5 136.5T1048 840t137-56.5 57-136.5zm-610 588q0 83-58 140.5T434 1433q-56 0-103-29t-72-77q52 20 98 40 60 24 120-1.5t85-86.5q24-60-1.5-120t-86.5-84l-82-33q22-5 42-5 82 0 140 57.5t58 140.5zm904-819v960q0 119-84.5 203.5T1248 1664H288q-119 0-203.5-84.5T0 1376v-153l172 69q20 92 93.5 152t168.5 60q104 0 181-70t87-173l345-252q150 0 255.5-105.5T1408 649q0-150-105.5-255.5T1047 288q-148 0-253 104.5T687 645L462 967q-9-1-28-1-75 0-137 37L0 884V416q0-119 84.5-203.5T288 128h960q119 0 203.5 84.5T1536 416zm-247 233q0 100-71 170.5T1047 890t-170.5-70.5T806 649t70.5-171 170.5-71q101 0 171.5 70.5T1289 649z" fill="#f00"/></svg>