<svg xmlns="http://www.w3.org/2000/svg" viewBox="0 0 1536 1792"><path d="M1254 637q16-85-21-132-52-65-187-45-17 3-41 12.5T947.5 503 883 551.5t-59.5 70T779 713q80-7 113.5 16t26.5 99q-5 52-52 143-43 78-71 99-44 32-87-14-23-24-37.5-64.5t-19-73-10-84T634 763q-23-129-34-164-12-37-35.5-69T514 490q-57-16-127 25-54 32-136.5 106T128 723v7q16 8 25.5 26t21.5 20q21 3 54.5-8.5t58-10.5 41.5 30q11 18 18.5 38.5t15 48T375 914q17 46 53 187 36 146 57 197 42 99 103 125 43 12 85 1.5t76-31.5q131-77 250-237 104-139 172.5-292.5T1254 637zm282-221v960q0 119-84.5 203.5T1248 1664H288q-119 0-203.5-84.5T0 1376V416q0-119 84.5-203.5T288 128h960q119 0 203.5 84.5T1536 416z" fill="#f00"/></svg>